<svg xmlns="http://www.w3.org/2000/svg" width="680" height="680" viewBox="0 0 680 680" version="1.1"><path d="M 323.750 68.706 C 324.988 68.944, 327.012 68.944, 328.250 68.706 C 329.488 68.467, 328.475 68.272, 326 68.272 C 323.525 68.272, 322.512 68.467, 323.750 68.706 M 359.762 68.707 C 361.006 68.946, 362.806 68.937, 363.762 68.687 C 364.718 68.437, 363.700 68.241, 361.500 68.252 C 359.300 68.263, 358.518 68.468, 359.762 68.707 M 331.300 126 C 331.300 129.025, 331.487 130.262, 331.716 128.750 C 331.945 127.237, 331.945 124.763, 331.716 123.250 C 331.487 121.737, 331.300 122.975, 331.300 126 M 339.300 126 C 339.300 129.025, 339.487 130.262, 339.716 128.750 C 339.945 127.237, 339.945 124.763, 339.716 123.250 C 339.487 121.737, 339.300 122.975, 339.300 126 M 529.500 142 C 531.648 144.200, 533.631 146, 533.906 146 C 534.181 146, 532.648 144.200, 530.500 142 C 528.352 139.800, 526.369 138, 526.094 138 C 525.819 138, 527.352 139.800, 529.500 142 M 540.500 153 C 543.209 155.750, 545.650 158, 545.925 158 C 546.200 158, 544.209 155.750, 541.500 153 C 538.791 150.250, 536.350 148, 536.075 148 C 535.800 148, 537.791 150.250, 540.500 153 M 337.789 154.741 C 341.248 154.937, 346.648 154.936, 349.789 154.738 C 352.930 154.540, 350.100 154.380, 343.500 154.382 C 336.900 154.384, 334.330 154.546, 337.789 154.741 M 532 166.500 C 533.866 168.425, 535.617 170, 535.892 170 C 536.167 170, 534.866 168.425, 533 166.500 C 531.134 164.575, 529.383 163, 529.108 163 C 528.833 163, 530.134 164.575, 532 166.500 M 498.946 172.750 L 495.500 176.500 499.250 173.054 C 501.313 171.158, 503 169.471, 503 169.304 C 503 168.540, 502.154 169.260, 498.946 172.750 M 469.500 207 C 473.320 210.850, 476.671 214, 476.946 214 C 477.221 214, 474.320 210.850, 470.500 207 C 466.680 203.150, 463.329 200, 463.054 200 C 462.779 200, 465.680 203.150, 469.500 207 M 361.453 256.250 L 357.500 260.500 361.750 256.547 C 365.702 252.871, 366.460 252, 365.703 252 C 365.540 252, 363.627 253.912, 361.453 256.250 M 167.103 307.147 C 165.391 315.618, 164.017 329.754, 164.008 338.988 L 164 347.476 166.564 343.873 C 169.703 339.461, 173.063 337.548, 176.262 338.351 C 178.381 338.883, 178.897 339.999, 180.451 347.405 C 182.296 356.197, 187.634 369.361, 192.394 376.858 L 195.161 381.215 196.771 378.916 C 197.657 377.651, 200.755 371.778, 203.655 365.863 C 209.427 354.091, 211.674 351.901, 215.446 354.373 C 217.162 355.497, 218.180 357.771, 219.398 363.194 C 221.788 373.843, 225.463 382.822, 231.491 392.741 C 237.630 402.842, 237.360 404.428, 229.494 404.474 C 227.026 404.488, 225.006 404.725, 225.006 405 C 225.005 405.275, 226.622 408.200, 228.598 411.500 C 232.309 417.698, 235.791 422, 237.097 422 C 237.756 422, 240.778 416.717, 254.598 391.403 C 258.488 384.278, 260.074 382.750, 263.578 382.750 C 267.207 382.750, 267.921 383.819, 269.073 390.972 C 269.632 394.446, 271.532 401.108, 273.295 405.776 L 276.500 414.263 344.760 414.475 C 382.303 414.591, 413.301 414.968, 413.645 415.312 C 415.291 416.957, 421.376 400.029, 423.562 387.723 C 424.401 382.996, 426.955 381.395, 430.769 383.205 C 433.303 384.407, 439.077 393.750, 452.362 418.146 L 455.224 423.402 458.047 419.951 C 461.062 416.265, 466.490 407.603, 467.537 404.807 C 468.095 403.315, 467.758 403.228, 464.694 404.074 C 460.569 405.213, 456 403.837, 456 401.455 C 456 400.578, 457.376 397.860, 459.058 395.415 C 464.973 386.818, 474 365.338, 474 359.859 C 474 356.078, 476.246 353, 479.006 353 C 482.681 353, 483.915 354.636, 490.992 368.891 L 497.144 381.282 500.694 375.391 C 505.927 366.706, 508.557 360.242, 510.454 351.397 C 511.385 347.053, 512.461 342.375, 512.844 341 C 513.839 337.429, 517.354 337.270, 521.717 340.598 L 525.324 343.349 524.629 329.925 C 524.246 322.541, 523.377 313.350, 522.697 309.500 L 521.460 302.500 513.857 302.210 C 503.226 301.805, 493.150 304.146, 482 309.610 C 473.243 313.902, 471.483 315.303, 459.500 327.529 C 452.350 334.824, 445.150 341.461, 443.500 342.278 C 441.850 343.094, 436.688 344.745, 432.030 345.945 C 427.371 347.146, 420.171 349.897, 416.030 352.059 C 408.816 355.825, 396.094 364.862, 390.942 369.878 C 386.620 374.087, 375.485 380.835, 368.561 383.441 C 358.675 387.162, 345.884 388.567, 335.328 387.090 C 319.781 384.915, 309.169 379.845, 294.869 367.762 C 279.794 355.023, 268.296 348.604, 253.916 344.898 C 243.641 342.250, 244.125 342.623, 224.874 322.480 C 211.480 308.464, 199.074 302.878, 179.842 302.204 L 168.184 301.795 167.103 307.147 M 67.286 337.500 C 67.294 340.250, 67.488 341.256, 67.718 339.736 C 67.947 338.216, 67.941 335.966, 67.704 334.736 C 67.467 333.506, 67.279 334.750, 67.286 337.500 M 83.252 337.500 C 83.263 339.700, 83.468 340.482, 83.707 339.238 C 83.946 337.994, 83.937 336.194, 83.687 335.238 C 83.437 334.282, 83.241 335.300, 83.252 337.500 M 606.382 350.500 C 606.384 357.100, 606.546 359.670, 606.741 356.211 C 606.937 352.752, 606.936 347.352, 606.738 344.211 C 606.540 341.070, 606.380 343.900, 606.382 350.500 M 622.349 354 C 622.349 358.675, 622.522 360.587, 622.732 358.250 C 622.943 355.913, 622.943 352.087, 622.732 349.750 C 622.522 347.413, 622.349 349.325, 622.349 354 M 66.272 351 C 66.272 353.475, 66.467 354.488, 66.706 353.250 C 66.944 352.012, 66.944 349.988, 66.706 348.750 C 66.467 347.512, 66.272 348.525, 66.272 351 M 83.272 369 C 83.272 371.475, 83.467 372.488, 83.706 371.250 C 83.944 370.012, 83.944 367.988, 83.706 366.750 C 83.467 365.512, 83.272 366.525, 83.272 369 M 184 386.937 C 184 387.311, 184.610 388.452, 185.355 389.471 C 186.899 391.583, 189.367 391.051, 190.846 388.287 C 191.712 386.670, 191.376 386.450, 187.912 386.359 C 185.760 386.303, 184 386.563, 184 386.937 M 503.143 386.731 L 499.785 387.143 502.066 389.570 C 504.202 391.843, 504.461 391.892, 506.173 390.344 C 507.973 388.714, 508.711 385.848, 507.250 386.160 C 506.837 386.248, 504.989 386.505, 503.143 386.731 M 325.250 426.747 C 331.712 426.921, 342.288 426.921, 348.750 426.747 C 355.212 426.573, 349.925 426.430, 337 426.430 C 324.075 426.430, 318.788 426.573, 325.250 426.747 M 377.250 426.746 C 382.613 426.925, 391.387 426.925, 396.750 426.746 C 402.113 426.566, 397.725 426.419, 387 426.419 C 376.275 426.419, 371.887 426.566, 377.250 426.746 M 278.264 436.718 C 279.784 436.947, 282.034 436.941, 283.264 436.704 C 284.494 436.467, 283.250 436.279, 280.500 436.286 C 277.750 436.294, 276.744 436.488, 278.264 436.718 M 455.250 442.716 C 456.762 442.945, 459.238 442.945, 460.750 442.716 C 462.262 442.487, 461.025 442.300, 458 442.300 C 454.975 442.300, 453.738 442.487, 455.250 442.716 M 285.944 461.921 C 287.088 463.528, 289.403 466.003, 291.089 467.421 L 294.153 470 345.172 470 C 402.370 470, 398.323 470.510, 404.405 462.536 L 407.102 459 345.483 459 L 283.864 459 285.944 461.921 M 408.663 479.671 C 408.294 480.039, 379.188 480.282, 343.982 480.210 L 279.972 480.079 281.148 482.289 C 281.795 483.505, 283.677 486.188, 285.330 488.250 L 288.335 492 345.174 492 L 402.013 492 404.158 489.533 C 407.253 485.974, 411.268 479, 410.223 479 C 409.734 479, 409.032 479.302, 408.663 479.671 M 313.688 603.714 C 314.892 603.938, 316.084 604.778, 316.337 605.580 C 316.628 606.505, 316.739 606.392, 316.640 605.270 C 316.538 604.122, 315.607 603.466, 313.991 603.404 C 311.939 603.324, 311.886 603.379, 313.688 603.714" stroke="none" fill="#889191" fill-rule="evenodd"/><path d="M 320 68.973 C 254.365 74.182, 185.749 109.628, 139.123 162.410 C 119.504 184.620, 104.593 207.586, 93.138 233.235 C 77.493 268.266, 70.018 299.288, 67.805 338.377 C 65.415 380.585, 71.436 416.781, 87.489 456.702 C 88.813 459.996, 89.940 461.155, 92.699 462.066 C 95.761 463.076, 96.562 462.970, 98.859 461.246 C 102.853 458.251, 102.324 452.329, 96.643 436.429 C 80.773 392.012, 78.708 337.201, 91.032 287.500 C 99.555 253.124, 113.075 223.365, 132.705 195.769 C 159.175 158.558, 191.355 130.789, 231.500 110.514 C 256.837 97.718, 284.396 89.205, 312.341 85.542 C 327.769 83.519, 360.547 83.510, 377.030 85.523 C 432.942 92.353, 488.788 120.688, 529 162.631 C 573.679 209.232, 599.208 265.501, 605.711 331.710 C 607.188 346.746, 607.243 351.021, 606.146 365.541 C 604.019 393.711, 599.997 413.938, 591.546 438.958 C 586.271 454.576, 586.036 457.127, 589.550 460.641 C 592.525 463.616, 596.111 463.278, 599.670 459.689 C 601.934 457.405, 610.295 433.732, 613.864 419.500 C 621.485 389.116, 623.881 354.035, 620.514 322.132 C 616.112 280.418, 601.686 239.024, 578.395 201.273 C 552.285 158.952, 513.174 122.285, 470 99.651 C 429.334 78.332, 395.169 69.475, 350 68.542 C 339.275 68.321, 325.775 68.514, 320 68.973 M 331.667 104.667 C 330.822 105.512, 330.813 113.488, 331.647 123.349 L 332.293 131 335.647 131 L 339 131 339 126 L 339 121 343.941 121 C 349.366 121, 350.184 120.420, 349.335 117.174 C 348.849 115.316, 348.056 115, 343.883 115 C 339.341 115, 339 114.825, 339 112.500 C 339 110.090, 339.233 110, 345.500 110 L 352 110 352 107 L 352 104 342.167 104 C 336.758 104, 332.033 104.300, 331.667 104.667 M 392.458 111.250 C 392.195 111.938, 390.452 117.450, 388.586 123.500 L 385.192 134.500 387.846 135.705 C 392.138 137.653, 392.909 137.247, 394.131 132.393 C 395.249 127.954, 395.405 127.806, 398.396 128.354 C 400.103 128.666, 402.492 129.212, 403.705 129.566 C 405.510 130.093, 406.033 129.718, 406.590 127.497 C 407.403 124.259, 405.948 123.037, 401.250 123.015 C 397.955 123, 397.515 122.428, 398.607 119.582 C 399.334 117.688, 401.217 117.587, 405.689 119.204 C 408.511 120.225, 409.268 120.160, 410.647 118.782 C 413.365 116.064, 411.575 114.471, 403.232 112.185 C 393.970 109.647, 393.101 109.571, 392.458 111.250 M 285 112.005 C 283.625 112.466, 279.012 113.844, 274.750 115.067 C 267.787 117.065, 267 117.541, 267 119.751 C 267 122.001, 267.327 122.179, 270.855 121.842 L 274.711 121.475 277.489 130.723 C 280.190 139.715, 280.340 139.954, 282.884 139.356 C 287.266 138.327, 287.426 137.528, 285.037 128.639 C 283.788 123.991, 283.049 119.730, 283.395 119.171 C 283.740 118.611, 285.394 117.853, 287.069 117.485 C 289.623 116.924, 290.065 116.399, 289.808 114.235 C 289.454 111.271, 288.504 110.830, 285 112.005 M 445.794 136.250 C 437.440 149.150, 436.124 151.524, 436.895 152.295 C 437.347 152.747, 441.493 155.327, 446.108 158.028 C 453.789 162.522, 454.608 162.794, 455.779 161.238 C 457.748 158.621, 456.836 156.692, 452.586 154.486 C 448.658 152.448, 446.073 149.594, 447.164 148.502 C 447.491 148.176, 449.811 148.906, 452.321 150.125 C 456.114 151.968, 457.146 152.124, 458.442 151.048 C 460.948 148.968, 460.256 147.005, 456.456 145.417 C 452.961 143.957, 451.104 141.562, 452.436 140.231 C 452.811 139.855, 455.642 140.887, 458.725 142.524 C 461.809 144.161, 464.630 145.624, 464.994 145.776 C 465.544 146.005, 468 141.730, 468 140.544 C 468 139.989, 451.146 131, 450.107 131 C 449.605 131, 447.664 133.363, 445.794 136.250 M 225.750 137.758 C 224.238 138.696, 223.004 140.147, 223.008 140.982 C 223.019 143.030, 224.851 159.589, 225.576 164.196 L 226.158 167.892 229.614 166.244 C 232.629 164.807, 232.993 164.246, 232.468 161.853 C 231.939 159.447, 232.335 158.855, 235.683 157.044 C 237.782 155.908, 240.261 154.440, 241.191 153.782 C 242.558 152.814, 243.269 152.933, 244.888 154.398 C 246.830 156.156, 246.990 156.143, 250.023 153.983 C 251.745 152.757, 252.782 151.421, 252.327 151.014 C 250.178 149.091, 230.126 136.003, 229.365 136.027 C 228.889 136.041, 227.262 136.820, 225.750 137.758 M 230.370 147.250 C 230.701 148.488, 230.979 150.063, 230.986 150.750 C 231.003 152.231, 232.900 152.353, 235 151.010 C 236.265 150.200, 236.077 149.655, 233.794 147.525 C 230.454 144.409, 229.590 144.339, 230.370 147.250 M 318.529 156.056 C 289.458 160.569, 254.275 176.642, 231.057 196.018 C 203.809 218.755, 185.446 246.154, 173.784 281.468 C 171.598 288.086, 169.740 295.185, 169.655 297.244 C 169.570 299.304, 169.050 301.066, 168.500 301.161 C 167.950 301.256, 172.900 301.627, 179.500 301.984 C 199.389 303.062, 211.580 308.569, 224.874 322.480 C 244.125 342.623, 243.641 342.250, 253.916 344.898 C 268.296 348.604, 279.794 355.023, 294.869 367.762 C 309.169 379.845, 319.781 384.915, 335.328 387.090 C 345.884 388.567, 358.675 387.162, 368.561 383.441 C 375.485 380.835, 386.620 374.087, 390.942 369.878 C 396.094 364.862, 408.816 355.825, 416.030 352.059 C 420.171 349.897, 427.371 347.146, 432.030 345.945 C 436.688 344.745, 441.850 343.094, 443.500 342.278 C 445.150 341.461, 452.350 334.824, 459.500 327.529 C 471.484 315.302, 473.242 313.902, 482 309.611 C 492.853 304.293, 502.116 302.042, 513.250 302.017 C 517.513 302.008, 521 301.737, 521 301.417 C 521 299.048, 516.268 282.787, 513.312 275 C 503.639 249.514, 491.330 229.705, 473.906 211.580 C 452.785 189.609, 427.152 173.137, 399.159 163.547 C 380.380 157.113, 372.147 155.837, 347 155.464 C 334.625 155.280, 321.813 155.547, 318.529 156.056 M 494.848 176.837 C 490.089 181.052, 485.957 185.020, 485.665 185.656 C 485.373 186.292, 488.536 190.473, 492.693 194.948 C 499.921 202.729, 500.332 203.009, 502.125 201.387 C 504.733 199.027, 504.543 198.313, 500 193.384 C 496.392 189.470, 494.845 186, 496.708 186 C 497.097 186, 499.134 187.678, 501.234 189.728 C 504.349 192.771, 505.369 193.258, 506.776 192.376 C 509.696 190.546, 509.377 187.654, 506.038 185.682 C 502.991 183.882, 501.807 180, 504.305 180 C 505.023 180, 507.794 182.279, 510.463 185.064 C 515.315 190.126, 515.317 190.127, 517.314 188.130 C 519.312 186.133, 519.311 186.130, 514.250 180.316 C 511.466 177.117, 507.908 173.302, 506.344 171.837 L 503.500 169.175 494.848 176.837 M 180.153 175.750 C 173.076 182.500, 172.815 190.996, 179.503 196.868 C 184.060 200.869, 188.832 201.718, 194.532 199.541 C 199.705 197.565, 202.564 194.333, 204.063 188.765 C 205.462 183.570, 204.716 181.783, 201.313 182.183 C 199.161 182.436, 198.443 183.208, 197.762 186 C 196.589 190.811, 192.511 194.345, 189.115 193.493 C 183.769 192.151, 181.409 187.993, 183.154 182.990 C 183.938 180.739, 185.033 179.743, 187.201 179.310 C 190.797 178.591, 193.256 174.407, 190.943 172.944 C 187.864 170.996, 184.115 171.971, 180.153 175.750 M 340 198.721 C 340 199.157, 340.471 201.085, 341.047 203.007 C 342.646 208.343, 342.397 219.115, 340.573 223.479 C 339.692 225.589, 336.530 230.507, 333.548 234.408 C 325.403 245.061, 324.137 250.428, 327.987 257.974 C 329.759 261.448, 333.346 265, 335.083 265 C 335.433 265, 335.976 262.517, 336.290 259.482 C 336.917 253.405, 338.972 249.520, 345.696 241.700 C 352.620 233.647, 354.359 229.619, 354.416 221.500 C 354.474 213.368, 352.755 209.093, 347.184 203.508 C 343.277 199.591, 340 197.408, 340 198.721 M 361.712 207.140 C 363.588 211.783, 364.219 215.257, 364.300 221.390 C 364.425 230.757, 363.048 234.149, 355.608 242.803 C 349.157 250.307, 347.375 258.311, 350.913 263.895 C 353.033 267.240, 371.533 247.538, 375.017 238.224 C 378.364 229.280, 377.094 219.274, 371.549 210.895 C 369.202 207.348, 361.771 201, 359.966 201 C 359.563 201, 360.348 203.763, 361.712 207.140 M 535.050 238.907 C 534.278 240.349, 534.455 241.340, 535.773 242.968 C 537.780 245.447, 540.577 244.909, 541.545 241.860 C 542.853 237.736, 537.081 235.112, 535.050 238.907 M 148.079 241.250 C 146.893 244.364, 149.373 247.167, 152.344 246.070 C 154.892 245.130, 155.651 242.490, 153.960 240.452 C 152.154 238.276, 149.051 238.697, 148.079 241.250 M 554.200 265.200 C 552.399 267.001, 552.754 269.798, 554.931 270.963 C 558.327 272.781, 561.562 267.962, 558.800 265.200 C 558.140 264.540, 557.105 264, 556.500 264 C 555.895 264, 554.860 264.540, 554.200 265.200 M 128.545 267.859 C 127.626 270.755, 128.977 273, 131.639 273 C 134.420 273, 136.423 269.311, 134.762 267.250 C 133.219 265.334, 129.222 265.726, 128.545 267.859 M 340.817 271.749 L 307.133 272.026 303.575 276.184 C 294.875 286.347, 292.178 306.126, 297.468 320.957 C 301.554 332.413, 312.250 343.677, 323.546 348.420 C 329.243 350.811, 332.330 351.419, 340.620 351.778 C 360.266 352.630, 374.029 345.711, 384.840 329.548 C 393.524 316.564, 395.386 300.185, 389.760 286.258 C 386.160 277.344, 379.851 270.533, 375.846 271.236 C 375.106 271.366, 359.342 271.597, 340.817 271.749 M 556.566 292.496 C 555.536 294.961, 553.973 296.531, 551.536 297.549 C 547.517 299.229, 546.922 301.538, 550.250 302.548 C 553.070 303.403, 557 306.936, 557 308.615 C 557 311.359, 558.907 310.824, 560.847 307.535 C 562.022 305.543, 564.399 303.442, 566.445 302.588 C 568.400 301.771, 570 300.863, 570 300.571 C 570 300.279, 568.264 299.155, 566.143 298.073 C 563.798 296.876, 561.787 294.901, 561.013 293.031 C 559.170 288.581, 558.248 288.470, 556.566 292.496 M 128.481 293.149 C 127.449 296.531, 125.048 298.949, 121.020 300.664 L 117.500 302.163 121.902 304.264 C 125.164 305.821, 126.718 307.351, 127.902 310.172 C 128.781 312.266, 129.725 313.968, 130 313.954 C 130.275 313.939, 131.400 312.045, 132.500 309.743 C 134.027 306.549, 135.269 305.368, 137.750 304.751 C 142.053 303.681, 141.862 301.587, 137.258 299.332 C 135.200 298.325, 133.002 296.450, 132.374 295.166 C 130.418 291.168, 129.268 290.572, 128.481 293.149 M 190 404.878 C 190 406.713, 192.598 408.002, 193.824 406.776 C 195.665 404.935, 195.219 404, 192.500 404 C 191.125 404, 190 404.395, 190 404.878 M 499.203 404.854 C 498.145 405.525, 498.152 405.881, 499.244 406.787 C 500.264 407.634, 500.872 407.435, 501.800 405.949 C 502.764 404.405, 502.756 404.003, 501.758 404.015 C 501.066 404.024, 499.916 404.401, 499.203 404.854 M 278.812 414.718 C 277.322 415.075, 277.431 415.632, 279.737 419.449 C 284.453 427.257, 280.282 426.835, 347.405 426.308 L 407.310 425.838 409.176 423.669 C 411.758 420.665, 414.259 415.925, 413.605 415.271 C 412.980 414.647, 281.365 414.107, 278.812 414.718 M 224.615 427.931 C 226.269 431.247, 229.845 432.097, 231.870 429.656 C 232.753 428.592, 232.206 428.058, 229.243 427.091 C 227.184 426.420, 224.956 425.643, 224.292 425.366 C 223.474 425.024, 223.578 425.852, 224.615 427.931 M 462.601 427.331 C 459.502 428.266, 458.989 428.732, 460.101 429.599 C 463.048 431.896, 464.931 431.937, 466.473 429.736 C 469.252 425.768, 468.770 425.469, 462.601 427.331 M 278.047 439.088 C 278.662 440.237, 280.755 442.937, 282.699 445.088 L 286.233 449 346 449 L 405.767 449 409.301 445.088 C 411.245 442.937, 413.338 440.237, 413.953 439.088 L 415.070 437 346 437 L 276.930 437 278.047 439.088 M 230.149 442.887 C 229.089 443.559, 229.412 444.416, 231.649 446.872 C 234.682 450.202, 235.551 450.066, 238.236 445.843 C 239.739 443.478, 239.755 443.120, 238.381 442.593 C 236.145 441.735, 231.717 441.893, 230.149 442.887 M 454.601 446.250 C 455.511 448.038, 456.340 449.606, 456.446 449.735 C 456.551 449.864, 458.157 448.402, 460.015 446.485 L 463.392 443 458.170 443 L 452.949 443 454.601 446.250 M 132.932 485.126 C 130.395 489.867, 135.678 494.179, 139.429 490.429 C 141.489 488.368, 141.414 486.684, 139.171 484.655 C 136.677 482.398, 134.297 482.577, 132.932 485.126 M 549.411 485.498 C 548.462 489.281, 549.568 491, 552.950 491 C 555.333 491, 556.094 490.475, 556.593 488.487 C 557.373 485.377, 555.555 483, 552.397 483 C 550.715 483, 549.858 483.717, 549.411 485.498 M 521.657 506.150 C 518.546 510.082, 516 513.859, 516 514.543 C 516 517.020, 519.111 516.980, 521.620 514.471 C 523.036 513.055, 524.645 512.272, 525.315 512.674 C 525.967 513.066, 529.191 515.334, 532.480 517.715 L 538.459 522.043 540.207 519.771 C 541.169 518.522, 541.966 517.157, 541.978 516.738 C 541.990 516.318, 539.618 514.451, 536.707 512.589 C 529.216 507.797, 528.265 506.470, 530.531 503.965 C 532.277 502.037, 532.273 501.918, 530.419 500.516 C 529.364 499.717, 528.233 499.049, 527.907 499.032 C 527.581 499.014, 524.768 502.217, 521.657 506.150 M 153.259 512.487 C 151.291 513.343, 149.358 515.278, 148.340 517.413 C 146.903 520.428, 146.841 521.524, 147.907 525.083 C 149.271 529.637, 153.273 534, 156.087 534 C 159.243 534, 159.240 532.037, 156.077 528.435 C 154.385 526.508, 153 524.466, 153 523.899 C 153 521.725, 155.225 518.865, 157.626 517.952 C 160.901 516.707, 163.370 518.064, 165.003 522.008 C 166.585 525.826, 169.366 525.645, 169.821 521.695 C 170.068 519.546, 169.235 518, 166.189 514.953 C 161.840 510.604, 158.886 510.041, 153.259 512.487 M 501.923 527.750 L 496.994 532.500 504.975 540.595 C 512.869 548.601, 512.978 548.669, 514.978 546.806 C 517.499 544.458, 517.502 543.764, 515.004 541.503 C 512.469 539.210, 514.088 536.442, 517.039 538.021 C 519.992 539.601, 524.555 539.149, 526.418 537.091 C 528.353 534.952, 528.298 534.914, 521.250 533.495 C 518.548 532.951, 518 532.386, 518 530.143 C 518 525.565, 515.439 523, 510.869 523 C 507.434 523, 506.136 523.689, 501.923 527.750 M 177.707 531.324 C 176.884 532.581, 173.842 536.201, 170.947 539.368 L 165.683 545.127 167.886 547.314 L 170.088 549.500 171.833 547.205 C 174.057 544.277, 175 545.256, 175 550.492 C 175 553.636, 175.611 555.225, 177.500 557 L 180 559.349 180 555.756 C 180 550.476, 180.863 549, 183.952 549 C 190.741 549, 192.052 541.277, 186.336 534.950 C 181.132 529.190, 179.543 528.522, 177.707 531.324 M 506.487 531.042 C 505.571 533.928, 507.455 535.833, 509.778 534.369 C 512.249 532.810, 511.972 529.567, 509.336 529.192 C 507.839 528.978, 506.961 529.549, 506.487 531.042 M 180.250 538.150 C 178.478 539.922, 178.701 542.671, 180.678 543.430 C 181.600 543.784, 182.971 543.458, 183.724 542.705 C 184.882 541.546, 184.816 540.995, 183.296 539.118 C 181.859 537.343, 181.250 537.150, 180.250 538.150 M 480.893 544.497 C 473.955 548.268, 472.305 558.032, 477.695 563.422 C 482.501 568.228, 489.868 567.938, 494.948 562.742 C 497.454 560.179, 498 558.799, 498 555.033 C 498 549.830, 496.198 546.671, 491.989 544.494 C 488.405 542.641, 484.306 542.642, 480.893 544.497 M 482.571 550.571 C 480.239 552.904, 480.583 557.595, 483.223 559.443 C 486.291 561.593, 488.281 561.395, 490.826 558.686 C 493.605 555.727, 493.571 553.885, 490.686 551.174 C 487.960 548.614, 484.767 548.376, 482.571 550.571 M 198.949 551.579 C 191.339 554.743, 189.817 564.278, 195.945 570.407 C 198.588 573.050, 199.775 573.500, 204.101 573.500 C 208.556 573.500, 209.515 573.108, 212.082 570.234 C 217.435 564.243, 215.486 555.371, 207.961 551.480 C 204.481 549.680, 203.490 549.691, 198.949 551.579 M 200.039 558.189 C 197.509 560.904, 197.425 564.170, 199.829 566.345 C 203.614 569.770, 209 567.067, 209 561.743 C 209 556.367, 203.696 554.263, 200.039 558.189 M 455.500 562.531 C 453.850 563.347, 451.209 565.047, 449.632 566.308 L 446.764 568.600 449.378 573.759 C 450.816 576.597, 453.259 580.916, 454.807 583.357 C 457.587 587.741, 457.649 587.773, 459.921 586.060 C 461.984 584.504, 462.080 584.095, 460.860 582.084 C 459.613 580.028, 459.768 579.615, 462.737 577.108 C 468.409 572.320, 468.081 565.645, 462.020 562.510 C 458.541 560.711, 459.179 560.709, 455.500 562.531 M 223.564 575.189 C 219.093 583.808, 218.909 584.460, 220.590 585.689 C 223.101 587.526, 224.763 587.322, 225.471 585.090 C 226.597 581.544, 228.600 580.692, 231.438 582.551 C 233.513 583.911, 234.299 583.997, 235.505 582.996 C 237.796 581.095, 237.300 579.552, 234 578.306 C 230.771 577.087, 229.872 573.996, 232.750 574.007 C 233.713 574.010, 235.829 574.889, 237.454 575.960 C 239.623 577.390, 240.751 577.621, 241.704 576.831 C 244.471 574.534, 242.946 572.493, 236.041 569.250 C 232.236 567.462, 228.944 566, 228.727 566 C 228.509 566, 226.186 570.135, 223.564 575.189 M 455.483 569.053 C 454.502 572.146, 457.260 574.859, 459.498 573.002 C 461.724 571.154, 461.007 567.572, 458.336 567.192 C 456.836 566.978, 455.960 567.550, 455.483 569.053 M 424.302 578.716 L 418.103 581.311 419.409 584.405 C 426.780 601.871, 427.189 602.433, 430.853 600.112 C 431.955 599.414, 431.974 598.820, 430.957 596.920 C 429.883 594.912, 429.965 594.441, 431.545 593.543 C 435.974 591.028, 438 588.096, 438 584.200 C 438 576.943, 433.164 575.006, 424.302 578.716 M 250.434 580.750 C 243.720 596.562, 243.546 597.195, 245.527 598.644 C 248.249 600.634, 248.816 600.375, 250.485 596.383 C 251.751 593.352, 252.361 592.867, 254.248 593.391 C 261.268 595.339, 261 595.372, 261 592.556 C 261 590.499, 260.320 589.659, 258 588.850 C 254.882 587.763, 253.841 585, 256.550 585 C 257.402 585, 259.367 585.656, 260.917 586.457 C 263.259 587.668, 264.038 587.693, 265.530 586.602 C 268.335 584.551, 266.722 582.593, 260.649 580.679 C 257.580 579.711, 254.801 578.487, 254.475 577.960 C 253.336 576.116, 252.015 577.028, 250.434 580.750 M 427.667 582.667 C 426.461 583.872, 426.971 587.775, 428.406 588.326 C 430.315 589.058, 433.202 585.690, 432.417 583.645 C 431.786 582, 428.923 581.410, 427.667 582.667 M 402.362 586.765 C 401.737 587.169, 400.490 589.263, 399.593 591.419 L 397.961 595.337 395.066 592.563 C 392.367 589.977, 391.926 589.869, 388.570 590.977 L 384.970 592.165 389.970 595.833 C 392.720 597.850, 394.976 600.230, 394.985 601.123 C 394.993 602.015, 394.062 604.865, 392.916 607.456 C 391.770 610.047, 391.042 612.376, 391.298 612.632 C 391.555 612.888, 393.004 612.786, 394.518 612.406 C 396.500 611.909, 397.698 610.633, 398.788 607.857 C 399.622 605.736, 400.573 604.002, 400.902 604.005 C 401.231 604.008, 402.833 605.076, 404.461 606.379 C 406.922 608.348, 407.894 608.584, 410.211 607.777 C 411.745 607.242, 413 606.485, 413 606.095 C 413 605.704, 410.975 603.958, 408.500 602.213 C 403.516 598.700, 403.343 598.112, 405.500 592 C 406.325 589.662, 407 587.355, 407 586.874 C 407 585.816, 403.943 585.745, 402.362 586.765 M 274.485 592.663 C 273.594 595.874, 272.445 599.805, 271.932 601.399 C 269.927 607.637, 270.433 608.411, 277.750 610.296 C 286.370 612.517, 286.443 612.512, 286.802 609.684 C 287.064 607.614, 286.548 607.189, 282.815 606.401 C 279.871 605.780, 278.415 604.915, 278.169 603.642 C 277.845 601.957, 278.288 601.852, 282.989 602.499 C 288.020 603.190, 288.157 603.144, 287.833 600.855 C 287.561 598.929, 286.817 598.443, 283.750 598.190 C 280.724 597.939, 280 597.480, 280 595.809 C 280 594.014, 280.432 593.820, 283.250 594.352 C 290.278 595.679, 290.500 595.639, 290.500 593.041 C 290.500 590.868, 289.861 590.447, 285 589.421 C 281.975 588.782, 278.736 587.937, 277.803 587.543 C 276.403 586.952, 275.823 587.848, 274.485 592.663 M 302.558 597.270 C 302.269 599.046, 301.575 603.170, 301.016 606.434 C 299.368 616.055, 299.156 615.677, 306.674 616.482 C 310.345 616.875, 313.945 617.425, 314.674 617.705 C 315.600 618.060, 316 617.276, 316 615.107 C 316 612.250, 315.130 611.449, 312.564 611.943 C 310.323 612.375, 307 610.827, 307 609.351 C 307 608.033, 307.819 607.832, 311.500 608.247 C 315.650 608.715, 316 608.579, 316 606.505 C 316 604.648, 315.291 604.142, 311.931 603.605 C 308.781 603.101, 307.943 602.564, 308.219 601.227 C 308.574 599.512, 309.104 599.471, 315.250 600.684 C 317.694 601.167, 318 600.932, 318 598.582 C 318 595.532, 317.628 595.362, 309.292 594.604 L 303.083 594.039 302.558 597.270 M 364.601 595.105 C 361.356 595.578, 358.591 596.086, 358.457 596.233 C 358.123 596.598, 360.133 617.412, 360.545 617.854 C 360.938 618.276, 376.002 616.331, 376.545 615.788 C 376.752 615.582, 376.647 614.365, 376.312 613.085 C 375.750 610.937, 375.322 610.802, 370.786 611.339 C 366.510 611.845, 365.911 611.698, 366.193 610.211 C 366.416 609.032, 367.679 608.404, 370.258 608.190 C 373.511 607.920, 374 607.549, 374 605.354 C 374 602.998, 373.715 602.851, 369.772 603.164 C 366.379 603.434, 365.475 603.154, 365.198 601.750 C 364.910 600.288, 365.606 600, 369.427 600 C 373.841 600, 374 599.896, 374 597 C 374 593.667, 374.191 593.705, 364.601 595.105" stroke="none" fill="#eff5f0" fill-rule="evenodd"/><path d="M -0 340.001 L -0 680.003 340.250 679.751 L 680.500 679.500 680.751 339.750 L 681.003 0 340.501 0 L 0 0 -0 340.001 M 0.494 340.500 C 0.494 527.500, 0.609 604.149, 0.750 510.831 C 0.891 417.513, 0.891 264.513, 0.750 170.831 C 0.609 77.149, 0.494 153.500, 0.494 340.500 M 319 68.662 C 287.065 71.786, 256.639 80.521, 227.500 94.931 C 190.388 113.285, 162.031 135.466, 132.441 169.290 C 123.951 178.995, 106.184 205.851, 99.223 219.500 C 95.430 226.938, 87 245.475, 87 246.377 C 87 246.743, 85.461 250.982, 83.580 255.796 C 76.657 273.511, 70.161 303.737, 68.060 328 C 67.465 334.875, 66.789 342.525, 66.559 345 C 65.898 352.074, 67.907 381.228, 70.016 395.174 C 72.465 411.374, 76.783 428.438, 82.537 444.659 C 88.013 460.097, 88.999 461.722, 93.387 462.545 C 97.703 463.354, 100.374 461.924, 102.035 457.916 C 103.249 454.985, 102.933 453.547, 97.696 438.128 C 91.933 421.163, 89.066 410.572, 87.101 399 C 74.800 326.540, 92.523 251.393, 135.919 192 C 148.458 174.840, 171.604 150.631, 186.511 139.087 C 206.446 123.648, 234.314 108.137, 257.365 99.648 C 274.932 93.178, 285.089 90.365, 301.973 87.291 C 315.250 84.875, 318.824 84.641, 343.500 84.574 C 373.944 84.491, 383.736 85.574, 406.846 91.579 C 441.553 100.599, 477.189 118.617, 505.979 141.702 C 510.642 145.441, 519.494 153.587, 525.650 159.805 C 568.405 202.986, 594.599 255.745, 604.190 318 C 606.260 331.432, 605.941 374.762, 603.672 388.500 C 600.656 406.758, 597.261 420.515, 591.588 437.458 C 585.824 454.674, 585.594 457.330, 589.546 461.043 C 591.402 462.787, 592.597 463.111, 595.307 462.602 C 597.187 462.249, 599.438 461.174, 600.309 460.211 C 603.080 457.149, 613.823 422.992, 616.923 407.386 C 620.671 388.523, 623.356 358.919, 622.537 345.500 C 620.841 317.706, 619.923 310.274, 615.926 292 C 608.199 256.670, 591.691 218.484, 572.046 190.500 C 543.547 149.902, 509.101 119.307, 468.010 98.094 C 435.654 81.391, 405.949 72.477, 371.144 69.027 C 361.665 68.087, 327.335 67.847, 319 68.662 M 331 117.500 L 331 131 335.500 131 L 340 131 340 126 L 340 121 345 121 C 349.889 121, 350 120.933, 350 118 C 350 115.067, 349.889 115, 345 115 C 340.386 115, 340 114.814, 340 112.595 C 340 110.396, 340.364 110.209, 344.250 110.422 C 350.686 110.773, 352 110.173, 352 106.883 L 352 104 341.500 104 L 331 104 331 117.500 M 392.713 109.709 C 392.346 110.346, 387.512 125.853, 385.402 133.160 C 385.056 134.359, 385.899 135.142, 388.442 135.981 C 392.785 137.414, 393.600 136.946, 394.425 132.546 C 394.784 130.634, 395.425 128.856, 395.849 128.593 C 396.273 128.331, 398.551 128.606, 400.910 129.205 C 405.625 130.402, 406.955 129.549, 406.985 125.310 C 406.997 123.499, 406.353 123.067, 403.250 122.810 C 400.238 122.561, 399.437 122.057, 399.180 120.250 C 398.799 117.566, 400.284 117.385, 405.346 119.500 C 409.965 121.430, 409.692 121.497, 411.506 117.987 C 413.035 115.031, 413.012 114.955, 410.282 113.913 C 408.752 113.329, 405.037 112.209, 402.028 111.423 C 399.018 110.637, 395.793 109.752, 394.862 109.456 C 393.930 109.160, 392.963 109.274, 392.713 109.709 M 276.647 114.042 C 271.228 115.598, 266.594 117.073, 266.349 117.318 C 266.103 117.563, 266.198 118.940, 266.558 120.377 C 267.155 122.754, 267.547 122.936, 270.900 122.400 L 274.587 121.810 277.331 130.977 L 280.074 140.143 283.287 139.466 C 285.054 139.094, 286.824 138.491, 287.219 138.126 C 287.614 137.761, 286.827 133.424, 285.469 128.488 C 284.111 123.552, 283 119.416, 283 119.297 C 283 119.178, 284.715 118.566, 286.812 117.938 C 290.258 116.906, 290.583 116.518, 290.198 113.898 C 289.681 110.374, 289.404 110.377, 276.647 114.042 M 442.634 140.546 C 438.985 146.257, 436 151.287, 436 151.725 C 436 152.163, 440.134 154.937, 445.186 157.890 L 454.372 163.259 456.219 160.978 C 458.681 157.938, 458.252 157.139, 452.523 154.091 C 444.806 149.986, 445.602 146.935, 453.418 150.662 C 456.283 152.028, 457.180 152.096, 458.452 151.040 C 460.943 148.973, 460.269 147.279, 456 144.880 C 452.130 142.705, 450.636 140, 453.304 140 C 454.022 140, 456.737 141.350, 459.339 143 C 461.941 144.650, 464.407 146, 464.819 146 C 465.231 146, 466.338 144.698, 467.277 143.108 L 468.986 140.215 460.743 135.858 C 456.209 133.461, 451.773 131.199, 450.884 130.832 C 449.642 130.318, 447.734 132.566, 442.634 140.546 M 225.937 137.337 L 222.417 139.500 223.642 150 C 224.316 155.775, 224.904 161.625, 224.949 163 C 225.096 167.512, 226.322 168.402, 229.867 166.569 C 232.466 165.225, 233 164.356, 233 161.474 C 233 159.321, 233.486 158, 234.278 158 C 234.981 158, 237.119 156.919, 239.028 155.599 C 242.235 153.381, 242.637 153.320, 244.300 154.799 C 245.956 156.272, 246.380 156.250, 249.576 154.529 C 251.488 153.499, 252.891 152.173, 252.694 151.582 C 252.383 150.648, 235.171 138.303, 230.978 136.007 C 229.988 135.465, 228.228 135.929, 225.937 137.337 M 231 149.007 C 231 152.122, 231.316 152.327, 234.296 151.150 C 235.931 150.505, 235.863 150.242, 233.546 148.227 L 231 146.013 231 149.007 M 324.254 155.057 C 295.079 158.372, 263.320 171.382, 237.500 190.595 C 222.002 202.127, 206.661 218.345, 194.732 235.807 C 189.236 243.853, 177.603 268.057, 174.109 278.717 C 168.192 296.770, 164 321.850, 164 339.199 L 164 347.476 166.564 343.873 C 169.703 339.461, 173.063 337.548, 176.262 338.351 C 178.381 338.883, 178.897 339.999, 180.451 347.405 C 182.296 356.197, 187.634 369.361, 192.394 376.858 L 195.161 381.215 196.771 378.916 C 197.657 377.651, 200.755 371.778, 203.655 365.863 C 209.427 354.091, 211.674 351.901, 215.446 354.373 C 217.162 355.497, 218.180 357.771, 219.398 363.194 C 221.788 373.843, 225.463 382.822, 231.491 392.741 C 237.630 402.842, 237.360 404.428, 229.494 404.474 C 227.026 404.488, 225.006 404.725, 225.006 405 C 225.005 405.275, 226.622 408.200, 228.598 411.500 C 232.309 417.698, 235.791 422, 237.097 422 C 237.756 422, 240.778 416.717, 254.598 391.403 C 258.488 384.278, 260.074 382.750, 263.578 382.750 C 267.209 382.750, 267.921 383.818, 269.078 391.007 C 271.167 403.975, 279.946 423.295, 284.972 425.985 C 286.194 426.639, 308.006 427, 346.299 427 C 404.694 427, 405.776 426.964, 408.336 424.951 C 413.319 421.031, 420.966 402.334, 423.562 387.723 C 424.401 382.996, 426.955 381.395, 430.769 383.205 C 433.303 384.407, 439.077 393.750, 452.362 418.146 L 455.224 423.402 458.047 419.951 C 461.062 416.265, 466.490 407.603, 467.537 404.807 C 468.095 403.315, 467.758 403.228, 464.694 404.074 C 460.569 405.213, 456 403.837, 456 401.455 C 456 400.578, 457.376 397.860, 459.058 395.415 C 464.973 386.818, 474 365.338, 474 359.859 C 474 356.078, 476.246 353, 479.006 353 C 482.681 353, 483.915 354.636, 490.992 368.891 L 497.144 381.282 500.694 375.391 C 505.927 366.706, 508.557 360.242, 510.454 351.397 C 511.385 347.053, 512.461 342.375, 512.844 341 C 513.838 337.430, 517.354 337.270, 521.714 340.595 L 525.317 343.344 524.718 330.422 C 522.511 282.831, 503.610 240.062, 470.148 206.940 C 443.248 180.314, 408.733 162.529, 372 156.365 C 361.207 154.553, 335.004 153.836, 324.254 155.057 M 493.740 177.296 C 488.921 181.808, 485.006 185.950, 485.038 186.500 C 485.071 187.050, 488.420 191.059, 492.481 195.409 L 499.865 203.318 502.433 201.636 C 503.845 200.711, 505 199.563, 505 199.085 C 505 198.607, 502.910 195.892, 500.357 193.052 C 497.168 189.505, 496.036 187.564, 496.744 186.856 C 497.452 186.148, 498.672 186.949, 500.638 189.412 C 503.834 193.419, 506.887 194.013, 508.772 190.994 C 509.878 189.223, 509.596 188.573, 506.368 185.438 C 503.652 182.800, 503.003 181.597, 503.842 180.758 C 504.681 179.919, 506.196 180.962, 509.738 184.815 C 512.360 187.667, 515.012 190, 515.630 190 C 517.705 190, 519.342 187.075, 518.392 185.065 C 517.018 182.157, 504.876 168.994, 503.616 169.046 C 503.002 169.072, 498.558 172.784, 493.740 177.296 M 181.387 173.906 C 174.608 178.039, 172.266 188.789, 176.795 194.977 C 184.866 206.002, 204.128 200.296, 204.410 186.797 C 204.497 182.664, 204.377 182.488, 201.272 182.188 C 198.189 181.891, 198.013 182.064, 197.378 186.041 C 196.871 189.211, 195.999 190.638, 193.725 192.021 C 190.443 194.017, 188.643 193.731, 185.250 190.677 C 181.170 187.004, 183.424 179, 188.538 179 C 190.274 179, 191.136 178.307, 191.575 176.557 C 191.912 175.213, 191.894 173.638, 191.535 173.057 C 190.489 171.364, 184.770 171.843, 181.387 173.906 M 341.598 203.659 C 344.877 214.555, 342.682 223.223, 333.704 234.832 C 330.585 238.865, 327.558 243.927, 326.978 246.082 C 325.483 251.634, 327.273 257.493, 331.823 261.940 L 335.466 265.500 336.061 259.500 C 336.770 252.343, 337.445 250.969, 343.996 243.357 C 354.728 230.886, 357.080 220.429, 351.470 210.123 C 348.782 205.183, 342.997 199, 341.063 199 C 340.586 199, 340.827 201.097, 341.598 203.659 M 361.353 204.750 C 363.333 208.628, 365.004 217.179, 364.978 223.299 C 364.951 229.767, 362.724 234.676, 356.126 242.812 C 353.310 246.283, 350.743 250.333, 350.420 251.812 C 350.097 253.290, 349.673 255.029, 349.476 255.675 C 348.903 257.568, 350.993 264, 352.182 264 C 352.781 264, 357.254 260.016, 362.123 255.147 C 373.132 244.138, 376.488 237.749, 376.430 227.910 C 376.382 219.642, 372.907 212.013, 366.502 206.108 C 361.283 201.298, 359.327 200.782, 361.353 204.750 M 535.571 237.571 C 534.707 238.436, 534 239.754, 534 240.500 C 534 242.193, 536.727 245, 538.371 245 C 542.008 245, 543.331 238.783, 540.066 237.035 C 537.564 235.696, 537.431 235.712, 535.571 237.571 M 148.966 239.827 C 147.365 241.123, 146.935 242.220, 147.424 243.761 C 148.883 248.357, 155 247.268, 155 242.413 C 155 238.961, 151.753 237.570, 148.966 239.827 M 553.405 266.522 C 552.948 268.345, 553.254 269.683, 554.389 270.818 C 556.680 273.109, 559.500 271.218, 559.500 267.391 C 559.500 264.990, 559.040 264.447, 556.785 264.187 C 554.563 263.931, 553.949 264.355, 553.405 266.522 M 129.046 266.445 C 127.135 268.747, 128.156 272.451, 130.805 272.827 C 135.228 273.454, 137.459 269.602, 134.429 266.571 C 132.470 264.613, 130.603 264.569, 129.046 266.445 M 305.800 274.310 C 295.903 283.482, 292.185 304.728, 297.765 320.216 C 306.433 344.273, 333.052 357.463, 357.645 349.888 C 367.200 346.945, 372.044 343.850, 379.034 336.221 C 389.735 324.544, 394.500 310.270, 392.244 296.656 C 390.911 288.607, 387.446 280.717, 383.045 275.704 L 379.793 272 344.042 272 L 308.292 272 305.800 274.310 M 556.339 291.912 C 555.735 293.514, 553.388 295.993, 551.120 297.424 C 548.854 298.855, 547 300.401, 547 300.861 C 547 301.321, 548.809 302.407, 551.021 303.276 C 554.001 304.447, 555.428 305.780, 556.534 308.428 C 557.355 310.392, 558.237 312, 558.493 312 C 558.750 312, 559.861 310.232, 560.964 308.070 C 562.365 305.324, 564.027 303.758, 566.484 302.869 C 570.933 301.261, 570.934 299.816, 566.489 297.696 C 564.357 296.679, 562.321 294.643, 561.304 292.511 C 559.266 288.237, 557.794 288.059, 556.339 291.912 M 127.658 294.591 C 126.442 297.142, 124.794 298.635, 121.973 299.743 C 117.843 301.365, 116.575 304, 119.923 304 C 122.587 304, 127.651 308.474, 128.410 311.497 C 129.137 314.394, 130.818 314.791, 131.604 312.250 C 132.714 308.656, 133.775 307.447, 137.588 305.433 C 139.740 304.296, 141.500 302.832, 141.500 302.179 C 141.500 301.527, 139.927 300.207, 138.005 299.247 C 136.083 298.286, 133.608 296.055, 132.505 294.289 C 131.402 292.522, 130.246 291.060, 129.935 291.039 C 129.625 291.017, 128.600 292.616, 127.658 294.591 M 184 386.937 C 184 387.311, 184.610 388.452, 185.355 389.471 C 186.899 391.583, 189.367 391.051, 190.846 388.287 C 191.712 386.670, 191.376 386.450, 187.912 386.359 C 185.760 386.303, 184 386.563, 184 386.937 M 503.143 386.731 L 499.785 387.143 502.066 389.570 C 504.202 391.843, 504.461 391.892, 506.173 390.344 C 507.973 388.714, 508.711 385.848, 507.250 386.160 C 506.837 386.248, 504.989 386.505, 503.143 386.731 M 190.584 406.250 C 191.626 407.488, 192.535 408.627, 192.604 408.781 C 192.673 408.936, 193.475 407.923, 194.388 406.531 L 196.046 404 192.368 404 L 188.690 404 190.584 406.250 M 497.970 405.944 C 499.563 408.920, 500.344 409.002, 502.297 406.397 L 504.093 404 500.512 404 C 497.274 404, 497.030 404.187, 497.970 405.944 M 224.267 427.896 C 225.380 430.846, 226.605 431.513, 230 431.019 C 231.437 430.809, 232.952 429.207, 232.985 427.863 C 232.993 427.513, 231.762 426.993, 230.250 426.707 C 228.738 426.421, 226.509 425.873, 225.298 425.489 C 223.199 424.825, 223.151 424.939, 224.267 427.896 M 465.500 426 C 464.400 426.473, 462.150 426.905, 460.500 426.961 L 457.500 427.063 460.306 429.532 C 463.971 432.756, 465.615 432.646, 467.474 429.050 C 469.737 424.674, 469.487 424.287, 465.500 426 M 277.810 439.158 C 278.739 440.621, 280.973 443.433, 282.774 445.408 L 286.049 449 346.403 449 L 406.757 449 410.878 443.658 C 413.145 440.719, 415 437.907, 415 437.408 C 415 436.873, 386.475 436.500, 345.560 436.500 L 276.120 436.500 277.810 439.158 M 228.005 442.750 C 228.012 443.887, 233.965 450, 235.065 450 C 236.345 450, 240.037 443.869, 239.389 442.821 C 238.754 441.793, 227.998 441.727, 228.005 442.750 M 453 443.050 C 453 443.627, 453.690 445.435, 454.534 447.066 C 455.788 449.491, 456.402 449.855, 457.893 449.057 C 459.573 448.158, 463 443.782, 463 442.535 C 463 442.241, 460.750 442, 458 442 C 455.176 442, 453 442.457, 453 443.050 M 285.944 461.921 C 287.088 463.528, 289.403 466.003, 291.089 467.421 L 294.153 470 345.172 470 C 402.370 470, 398.323 470.510, 404.405 462.536 L 407.102 459 345.483 459 L 283.864 459 285.944 461.921 M 408.663 479.671 C 408.294 480.039, 379.188 480.282, 343.982 480.210 L 279.972 480.079 281.148 482.289 C 281.795 483.505, 283.677 486.188, 285.330 488.250 L 288.335 492 345.174 492 L 402.013 492 404.158 489.533 C 407.253 485.974, 411.268 479, 410.223 479 C 409.734 479, 409.032 479.302, 408.663 479.671 M 549.926 484.074 C 547.496 486.504, 547.508 487.508, 550 490 C 552.653 492.653, 554.611 492.523, 556.548 489.567 C 559.630 484.864, 553.894 480.106, 549.926 484.074 M 133.200 484.200 C 130.395 487.005, 132.508 492, 136.500 492 C 139.180 492, 141 490.180, 141 487.500 C 141 484.820, 139.180 483, 136.500 483 C 135.345 483, 133.860 483.540, 133.200 484.200 M 520.748 506.665 C 516.266 512.606, 515.244 514.589, 516.120 515.645 C 517.692 517.538, 519.387 517.335, 521.500 515 C 522.495 513.900, 523.740 513, 524.266 513 C 524.791 513, 528.118 515.025, 531.659 517.500 C 535.199 519.975, 538.412 521.997, 538.798 521.994 C 539.184 521.990, 540.240 520.687, 541.144 519.098 L 542.788 516.208 535.894 511.498 C 532.102 508.907, 529 506.642, 529 506.465 C 529 506.288, 529.755 505.388, 530.678 504.465 C 531.925 503.218, 532.091 502.366, 531.326 501.144 C 529.091 497.577, 526.639 498.857, 520.748 506.665 M 153.388 511.980 C 150.223 513.259, 147 517.893, 147 521.167 C 147 527.764, 151.725 534, 156.723 534 C 159.802 534, 159.587 532.014, 156.023 527.529 C 153.793 524.722, 153.277 523.350, 153.968 522.059 C 156.836 516.701, 161.495 516.801, 164.566 522.288 L 166.686 526.075 169.025 524.181 C 171.323 522.320, 171.334 522.224, 169.660 518.696 C 166.580 512.205, 159.779 509.398, 153.388 511.980 M 502.303 527.313 L 496.913 532.500 504.959 540.903 C 512.838 549.132, 513.046 549.268, 515.002 547.498 C 517.385 545.342, 517.535 543.689, 515.500 542 C 513.100 540.008, 513.592 537.651, 516.250 538.407 C 522.379 540.153, 523.532 540.107, 525.750 538.030 C 528.962 535.021, 528.579 534.209, 523.593 533.462 C 519.596 532.862, 519.128 532.496, 518.573 529.538 C 517.810 525.468, 515.490 523.332, 511.096 522.652 C 508.048 522.181, 507.130 522.668, 502.303 527.313 M 172.656 536.888 C 168.995 541.226, 166 545.260, 166 545.852 C 166 546.959, 169.124 549, 170.818 549 C 171.340 549, 172.014 548.055, 172.316 546.899 C 173.228 543.412, 175.294 545.801, 174.673 549.625 C 174.242 552.287, 174.671 553.644, 176.711 556.068 C 179.653 559.565, 180.959 558.713, 180.985 553.279 C 180.998 550.504, 181.441 549.943, 184.175 549.234 C 188.542 548.103, 191.471 544.014, 190.549 540.337 C 189.877 537.662, 181.924 529, 180.139 529 C 179.684 529, 176.317 532.549, 172.656 536.888 M 507.056 530.895 C 506.308 532.294, 506.418 533.102, 507.477 533.981 C 509.404 535.580, 511 534.429, 511 531.441 C 511 528.504, 508.520 528.160, 507.056 530.895 M 179.773 539.201 C 178.989 541.330, 180.035 543, 182.153 543 C 183.638 543, 184.059 542.435, 183.820 540.760 C 183.466 538.284, 180.528 537.152, 179.773 539.201 M 479.615 545.088 C 469.787 552.819, 474.052 567.010, 486.200 566.996 C 495.046 566.986, 501.742 556.570, 497.647 549.190 C 494.328 543.209, 484.769 541.034, 479.615 545.088 M 482.413 551.493 C 480.298 554.720, 481.214 558.321, 484.533 559.833 C 491.094 562.823, 495.487 553.472, 489.122 550.065 C 486.014 548.402, 484.183 548.791, 482.413 551.493 M 197.314 551.950 C 193.372 554.354, 192 556.815, 192 561.484 C 192 571.306, 201.816 577.175, 210.080 572.294 C 213.003 570.567, 216 565.610, 216 562.500 C 216 559.254, 212.767 554.019, 209.526 552.016 C 205.422 549.480, 201.401 549.458, 197.314 551.950 M 201.686 557.116 C 199.168 558.581, 198.021 562.082, 199.268 564.500 C 201.322 568.484, 203.998 569.002, 207 566 C 209.654 563.346, 209.552 559.500, 206.777 557.557 C 204.184 555.740, 204.068 555.730, 201.686 557.116 M 454 563.012 C 452.075 564.070, 449.461 565.759, 448.191 566.767 L 445.881 568.598 449.286 574.549 C 457.513 588.931, 456.801 588.154, 460.161 586.417 C 463.107 584.893, 463.124 584.838, 461.434 582.259 C 459.737 579.670, 459.755 579.618, 463.361 576.726 C 466.230 574.424, 467 573.103, 467 570.485 C 467 565.788, 466.161 564.135, 462.928 562.463 C 459.322 560.598, 458.275 560.662, 454 563.012 M 223.612 574.639 C 220.997 579.766, 219.140 584.417, 219.484 584.975 C 219.829 585.533, 220.991 586.460, 222.066 587.035 C 223.735 587.929, 224.323 587.566, 226.108 584.542 L 228.196 581.003 231.238 583.170 C 234.185 585.268, 234.324 585.277, 235.640 583.477 C 237.693 580.670, 237.303 579.368, 234 578 C 232.350 577.317, 231 576.137, 231 575.379 C 231 573.445, 232.942 573.667, 236.845 576.047 C 239.452 577.636, 240.501 577.829, 241.595 576.921 C 244.494 574.515, 243.021 572.523, 235.669 568.909 L 228.366 565.317 223.612 574.639 M 456.105 568.373 C 454.559 570.237, 455.773 573, 458.138 573 C 460.565 573, 461.613 570.444, 459.989 568.487 C 458.457 566.641, 457.565 566.615, 456.105 568.373 M 423.707 578.455 C 421.071 579.719, 418.668 580.998, 418.368 581.298 C 417.936 581.731, 425.429 600.678, 426.471 601.787 C 426.620 601.946, 427.931 601.533, 429.385 600.871 C 431.641 599.843, 431.944 599.215, 431.457 596.583 C 430.954 593.868, 431.249 593.342, 433.926 592.174 C 440.070 589.493, 440.421 579.251, 434.447 576.980 C 430.833 575.606, 429.176 575.833, 423.707 578.455 M 247.750 586.358 C 245.688 591.489, 244 596.361, 244 597.183 C 244 598.006, 245.138 599.197, 246.528 599.831 C 248.809 600.870, 249.151 600.732, 250.028 598.426 C 250.563 597.020, 251 595.476, 251 594.994 C 251 593.223, 253.101 592.907, 256.560 594.158 C 259.571 595.246, 260.250 595.218, 261.039 593.971 C 262.688 591.364, 262.074 590.058, 258.500 588.564 C 254.885 587.054, 253.788 585, 256.596 585 C 257.473 585, 259.469 585.755, 261.030 586.677 C 263.382 588.066, 264.137 588.131, 265.434 587.054 C 268.638 584.395, 267.201 582.583, 259.639 579.750 C 255.603 578.237, 252.120 577.007, 251.900 577.015 C 251.680 577.023, 249.813 581.227, 247.750 586.358 M 427.390 583.426 C 426.480 585.797, 427.767 588.191, 429.747 587.810 C 430.854 587.597, 431.500 586.561, 431.500 585 C 431.500 582.149, 428.344 580.941, 427.390 583.426 M 404.095 585.930 C 401.542 586.583, 400.625 587.741, 398.965 592.405 L 397.932 595.309 395.032 592.531 C 392.565 590.167, 391.600 589.852, 388.566 590.422 C 386.605 590.790, 385 591.424, 385 591.832 C 385 592.240, 387.250 594.253, 390 596.306 C 392.750 598.359, 395 600.467, 395 600.991 C 395 601.515, 393.888 604.458, 392.528 607.533 L 390.056 613.123 393.278 612.811 C 395.833 612.564, 396.914 611.724, 398.500 608.753 C 400.783 604.474, 401.925 604.154, 404.551 607.057 C 405.902 608.549, 407.111 608.941, 408.956 608.486 C 414.455 607.130, 413.782 605.163, 405.938 599.669 L 403.766 598.148 405.812 592.089 C 406.938 588.757, 407.553 585.870, 407.179 585.673 C 406.806 585.476, 405.418 585.592, 404.095 585.930 M 275.556 588.137 C 273.110 595.267, 270.157 607.550, 270.752 608.121 C 271.163 608.516, 273.975 609.499, 277 610.306 C 280.025 611.112, 283.285 612.095, 284.244 612.490 C 285.522 613.018, 286.224 612.582, 286.876 610.855 C 288.072 607.688, 287.620 607.185, 282.400 605.871 C 276.552 604.398, 277.173 602.390, 283.338 602.840 C 287.775 603.164, 288 603.055, 288 600.590 C 288 598.551, 287.509 598, 285.691 598 C 284.421 598, 282.509 597.357, 281.441 596.571 C 279.757 595.332, 279.709 595.062, 281.078 594.531 C 281.945 594.194, 283.887 594.387, 285.393 594.959 C 289.842 596.651, 291 596.275, 291 593.138 C 291 590.493, 290.602 590.192, 285.750 589.167 C 282.863 588.556, 279.493 587.768, 278.262 587.415 C 276.804 586.997, 275.861 587.248, 275.556 588.137 M 302.223 596.654 C 302.098 598.219, 301.546 601.945, 300.997 604.934 C 299.140 615.055, 299.344 615.681, 304.750 616.437 C 307.363 616.802, 310.995 617.359, 312.823 617.675 C 316.088 618.240, 316.140 618.191, 315.823 614.875 C 315.516 611.670, 315.283 611.484, 311.187 611.189 C 305.510 610.781, 306.096 608.427, 311.811 608.685 C 315.071 608.832, 316.031 608.477, 316.518 606.944 C 317.422 604.095, 316.290 603, 312.441 603 C 310.069 603, 309 602.540, 309 601.519 C 309 600.345, 309.909 600.163, 313.394 600.641 C 317.321 601.179, 317.863 601.007, 318.493 599.021 C 319.503 595.839, 318.416 595.262, 309.976 594.493 L 302.452 593.807 302.223 596.654 M 363.792 594.925 C 361.203 595.287, 358.775 595.891, 358.398 596.268 C 357.713 596.954, 359.642 616.975, 360.474 617.807 C 360.716 618.050, 364.417 617.854, 368.697 617.374 C 374.984 616.668, 376.546 616.154, 376.823 614.702 C 377.429 611.518, 375.367 610.201, 371.018 610.997 C 366.660 611.794, 365.870 611.503, 366.676 609.402 C 366.991 608.580, 368.619 608, 370.607 608 C 373.560 608, 374 607.675, 374 605.500 C 374 603.250, 373.600 603, 370 603 C 367.111 603, 366 602.583, 366 601.500 C 366 600.420, 367.105 600, 369.941 600 C 374.295 600, 375.448 598.986, 374.497 595.991 C 373.821 593.861, 372.413 593.721, 363.792 594.925" stroke="none" fill="#212829" fill-rule="evenodd"/></svg>